<?xml version="1.0" encoding="UTF-8"?><svg id="Layer_2" xmlns="http://www.w3.org/2000/svg" viewBox="0 0 748.65 209.06"><defs><style>.cls-1{fill:#f39118;}</style></defs><g id="LOGO"><g><path class="cls-1" d="M306.94,33.12h-43.96c-36.46,0-65.97,29.54-65.97,65.95v43.98c0,36.46,29.51,66,65.97,66h48.89v-44.01h-57.65c-7.31,0-13.24-5.92-13.24-13.23v-61.49c0-7.31,5.93-13.23,13.24-13.23,.04,0,.07,0,.11-.01h61.27s.07,.01,.12,.01c7.31,0,13.24,5.93,13.24,13.23v118.73h43.99V99.07c0-36.41-29.54-65.95-66.01-65.95"/><path class="cls-1" d="M562.21,77.09V34.95h-128.14V0h-44.04V143.06c0,36.45,29.56,66,66.05,66h43.92c28.71,0,53.14-18.39,62.22-44.01h-114.91c-7.31,0-13.24-5.92-13.24-13.23V77.09h128.14Z"/><path class="cls-1" d="M682.72,33.12h-43.97c-36.44,0-66.02,29.54-66.02,65.95v43.99c0,36.45,29.58,66,66.02,66h43.97c36.44,0,65.94-29.55,65.94-66v-43.99c0-36.41-29.5-65.95-65.94-65.95m-52.72,131.94c-7.31,0-13.23-5.92-13.23-13.23v-61.49c0-7.31,5.92-13.23,13.23-13.23,.05,0,.08-.01,.12-.01h61.23s.07,.01,.11,.01c7.3,0,13.23,5.93,13.23,13.23v61.49c0,7.31-5.93,13.23-13.23,13.23h-61.47Z"/><path class="cls-1" d="M116.22,33.12h-50.25C29.52,33.12,0,62.66,0,99.11c0,28.56,19.9,52.46,46.59,58.63V90.34c0-7.31,5.92-13.23,13.23-13.23h118.61c-9.07-25.61-33.45-43.98-62.22-43.98"/><path class="cls-1" d="M64.97,209.06h50.25c36.45,0,65.97-29.54,65.97-65.99h0c0-28.56-19.9-52.46-46.59-58.63v67.41c0,7.31-5.93,13.23-13.23,13.23H2.76c9.07,25.61,33.45,43.98,62.22,43.98"/></g></g></svg>